<svg width="104" height="100" viewBox="0 0 104 100" fill="none" xmlns="http://www.w3.org/2000/svg">
<path d="M51.9166 0C45.1875 0 38.5243 1.3254 32.3074 3.90052C26.0905 6.47563 20.4417 10.25 15.6835 15.0082C6.07392 24.6179 0.675293 37.6513 0.675293 51.2413C0.675293 73.89 15.3816 93.1055 35.7244 99.9206C38.2864 100.331 39.1063 98.7421 39.1063 97.3586V88.6988C24.9125 91.7733 21.8892 81.8324 21.8892 81.8324C19.5321 75.8884 16.2014 74.3 16.2014 74.3C11.5385 71.123 16.5601 71.2255 16.5601 71.2255C21.6842 71.5842 24.4 76.5033 24.4 76.5033C28.858 84.292 36.3905 81.9862 39.3113 80.7564C39.7724 77.4257 41.1047 75.1711 42.5395 73.89C31.1639 72.609 19.2247 68.2022 19.2247 48.6793C19.2247 42.9915 21.1718 38.431 24.5025 34.7929C23.9901 33.5118 22.1967 28.1827 25.0149 21.2652C25.0149 21.2652 29.3192 19.8816 39.1063 26.4918C43.1544 25.3645 47.5611 24.8008 51.9166 24.8008C56.2722 24.8008 60.6789 25.3645 64.727 26.4918C74.5141 19.8816 78.8184 21.2652 78.8184 21.2652C81.6366 28.1827 79.8432 33.5118 79.3308 34.7929C82.6615 38.431 84.6086 42.9915 84.6086 48.6793C84.6086 68.2535 72.6181 72.5578 61.1913 73.8388C63.036 75.4273 64.727 78.553 64.727 83.3184V97.3586C64.727 98.7421 65.5468 100.382 68.1601 99.9206C88.503 93.0543 103.158 73.89 103.158 51.2413C103.158 44.5122 101.833 37.849 99.2575 31.6321C96.6824 25.4152 92.908 19.7664 88.1497 15.0082C83.3915 10.25 77.7427 6.47563 71.5259 3.90052C65.309 1.3254 58.6458 0 51.9166 0Z" fill="black"/>
</svg>
